# xmcd
#
# Track frame offsets: 
#        150
#        19322
#        39316
#        55578
#        77786
#
# Disc length: 1318 seconds
#
# Revision: 0
# Processed by: cddbd v1.5.2PL0 Copyright (c) Steve Scherf et al.
# Submitted via: ExactAudioCopy v0.99pb1
#
DISCID=32052405
DTITLE=Matavaras - Matavaras [EP]
DYEAR=2007
DGENRE=Country
TTITLE0=If Not By Summer
TTITLE1=Simple As It Seems
TTITLE2=Beech Hill Mercy
TTITLE3=My Way Too
TTITLE4=Yet To Hear
EXTD=
EXTT0=
EXTT1=
EXTT2=
EXTT3=
EXTT4=
PLAYORDER=
